<?xml version="1.0" encoding="utf-8"?>
<!-- Generator: Adobe Illustrator 25.2.0, SVG Export Plug-In . SVG Version: 6.00 Build 0)  -->
<svg version="1.1" id="Capa_1" xmlns="http://www.w3.org/2000/svg" xmlns:xlink="http://www.w3.org/1999/xlink" x="0px" y="0px"
	 viewBox="0 0 621 484" style="enable-background:new 0 0 621 484;" xml:space="preserve">
<style type="text/css">
	.st0{fill:#FFFFFF;}
	.st1{fill:#FCB212;}
</style>
<path d="M552.11,483.65H69.13c-38.2,0-69.17-30.97-69.17-69.17V69.57c0-38.2,30.97-69.17,69.17-69.17h482.99
	c38.2,0,69.17,30.97,69.17,69.17v344.91C621.28,452.68,590.31,483.65,552.11,483.65z"/>
<g>
	<path class="st0" d="M141.47,346.42c-5.73,0-11.49-1.96-16.2-5.97c-10.51-8.95-11.77-24.73-2.82-35.24l65.62-77.04l-62.54-73.86
		c-8.92-10.54-7.61-26.31,2.92-35.23c10.54-8.92,26.31-7.61,35.23,2.92l76.26,90.06c7.91,9.35,7.89,23.05-0.05,32.37l-79.39,93.2
		C155.57,343.43,148.54,346.42,141.47,346.42z"/>
</g>
<g>
	<path class="st1" d="M414.17,405.1H255.39c-13.81,0-25-11.19-25-25s11.19-25,25-25h158.78c13.81,0,25,11.19,25,25
		S427.98,405.1,414.17,405.1z"/>
</g>
</svg>
